<svg width="182" height="182" viewBox="0 0 182 182" fill="none" xmlns="http://www.w3.org/2000/svg">
<path d="M173.219 141.022C172.573 139.591 170.895 138.943 169.459 139.594C168.026 140.237 167.386 141.92 168.032 143.353C174.049 156.756 175.118 166.82 170.969 170.969C165.051 176.887 150.722 172.744 133.267 162.79C155.735 148.043 170.625 122.668 170.625 93.8437C170.625 48.3693 133.631 11.375 88.1563 11.375C59.3348 11.375 33.9515 26.262 19.2038 48.7248C9.25356 31.2727 5.11306 16.9487 11.0309 11.0309C15.1743 6.88471 25.244 7.95396 38.6494 13.9713C40.0798 14.614 41.7662 13.9713 42.4089 12.5409C43.0515 11.1105 42.4088 9.42418 40.9784 8.78149C24.8373 1.5413 13.0898 0.927052 7.00985 7.00983C-5.33772 19.3546 10.9285 61.9653 65.3892 116.608C108.645 159.722 144.357 178.897 163.487 178.895C168.523 178.895 172.417 177.564 174.99 174.99C181.076 168.907 180.464 157.163 173.219 141.022ZM122.281 96.6875C125.424 96.6875 127.969 99.2326 127.969 102.375C127.969 105.517 125.424 108.062 122.281 108.062C119.139 108.062 116.594 105.517 116.594 102.375C116.594 99.2326 119.139 96.6875 122.281 96.6875ZM92.4219 42.6562C101.061 42.6562 108.063 49.6576 108.063 58.2969C108.063 66.9362 101.061 73.9375 92.4219 73.9375C83.7826 73.9375 76.7813 66.9362 76.7813 58.2969C76.7813 49.6576 83.7826 42.6562 92.4219 42.6562Z" fill="#D25757"/>
<circle cx="92.5" cy="58.5" r="18.5" fill="#D25757"/>
<circle cx="123.5" cy="99.5" r="18.5" fill="#D25757"/>
<path d="M12.7258 60.5662C8.21275 70.7525 5.6875 82.0052 5.6875 93.8438C5.6875 139.318 42.6818 176.313 88.1562 176.313C99.972 176.313 111.205 173.796 121.374 169.303C103.137 158.312 82.5427 141.735 61.3738 120.638C40.1993 99.3919 23.6742 78.7434 12.7258 60.5662Z" fill="#D25757"/>
<path d="M89.272 26L140.248 131.984H121.672L112.6 111.248H64.072L55 131.984H37L87.688 26H89.272ZM82.072 71.072L70.552 96.704H106.264L94.888 71.216L88.696 56.672H88.408L82.072 71.072Z" fill="#353245"/>
</svg>
